<?xml version="1.0" encoding="UTF-8"?>
<svg width="24px" height="24px" viewBox="0 0 24 24" version="1.1" xmlns="http://www.w3.org/2000/svg" xmlns:xlink="http://www.w3.org/1999/xlink">
    <title>icon / cell / padlock</title>
    <g id="icon-/-cell-/-padlock" stroke="none" stroke-width="1" fill="none" fill-rule="evenodd">
        <path d="M14.6836408,9.89224822 L14.6836408,7.16980947 C14.6836408,5.6208357 13.5571145,4.21267773 12.0550793,4.02492333 C10.1775353,3.79023033 8.58162295,5.24532691 8.58162295,7.02899367 L8.58162295,9.84530962 L8.00867715,9.84530962 C6.89931539,9.84530962 6,10.7452276 6,11.8517539 L6,16.8796552 C6,17.9877838 6.90284099,18.8860995 8.00102247,18.8860995 L15.2642413,18.8860995 C16.3693755,18.8860995 17.2652638,17.9861815 17.2652638,16.8796552 L17.2652638,11.8517539 C17.2652638,10.7436253 16.3623374,9.84530962 15.2565867,9.84530962 L14.6836408,9.84530962 L14.6836408,9.89224822 Z M9.98978093,7.07593227 C9.98978093,6.18409889 10.7407985,5.4330813 11.6326319,5.4330813 C12.5244653,5.4330813 13.2754829,6.18409889 13.2754829,7.07593227 L13.2754829,9.89224822 L9.98978093,9.89224822 L9.98978093,7.07593227 Z" id="Shape" fill="#000000" fill-rule="nonzero"></path>
    </g>
</svg>